<?xml version="1.0" encoding="UTF-8"?>
<svg width="20px" height="20px" viewBox="0 0 20 20" version="1.1" xmlns="http://www.w3.org/2000/svg" xmlns:xlink="http://www.w3.org/1999/xlink">
    <title>Group</title>
    <g id="Instructors-icon" stroke="none" stroke-width="1" fill="none" fill-rule="evenodd">
        <g id="Group">
            <path d="M3.0098391,6.71897991 L4.58309302,11.1257443 C4.80755485,11.0787417 5.04885517,11.1299738 5.23883985,11.281419 L7.70458916,13.2469764 C7.70458916,13.2469764 7.72774916,13.2200989 7.77001842,13.1711739 L7.87883574,13.0453584 C8.38443667,12.4613495 9.85450863,10.7706967 10.4636694,10.1499026 C10.4880777,10.1250281 10.5197346,10.1036179 10.5547852,10.0854056 C10.6438827,10.0307891 10.7482545,10 10.8588633,10 L14.4936073,10 L14.6116803,10.0000972 L14.8248638,10 C15.5304496,10 18,12.8119972 18,13.8047647 C18,14.3809022 17.2450068,15.0026333 15.7350204,15.6699579 L16.0319349,17.9932632 L9.02186276,17.9932632 L9.77257824,13.5138389 C8.89370658,14.5269854 8.2049258,15.0339682 7.70458916,15.0339682 C7.09257732,15.0339682 5.91665824,14.1068429 4.17683193,12.2525923 C4.00754234,12.0721644 3.95947121,11.8216668 4.02942273,11.6015123 L2.36718657,6.94294333 C2.31262294,6.7901049 2.39229041,6.62197231 2.54512885,6.56740868 C2.55023712,6.56558502 2.5553949,6.56390314 2.56059628,6.56236499 L2.64977188,6.53599394 C2.79933682,6.49176452 2.95739985,6.57209206 3.0098391,6.71897991 Z M15.3524104,12.678 L15.5614104,14.311 L16.3394499,13.8047647 L15.3524104,12.678 Z M18,2 C19.1045695,2 20,2.76751186 20,3.71428571 L20,12.2857143 C20,13.1874037 19.1878181,13.9264971 18.1562988,13.9948423 L18,14 C18.5128358,14 18.9355072,13.6461298 18.9932723,13.190236 L19,13.0833333 L19,3.91666667 C19,3.44656715 18.6139598,3.05911844 18.1166211,3.00616709 L18,3 L2,3 C1.48716416,3 1.06449284,3.35387017 1.00672773,3.80976397 L1,3.91666667 L1,13.0833333 C1,13.5534329 1.38604019,13.9408816 1.88337887,13.9938329 L2,14 C0.8954305,14 0,13.2324881 0,12.2857143 L0,3.71428571 C0,2.76751186 0.8954305,2 2,2 L18,2 Z M12.5,4 C13.8807119,4 15,5.11928813 15,6.5 C15,7.88071187 13.8807119,9 12.5,9 C11.1192881,9 10,7.88071187 10,6.5 C10,5.11928813 11.1192881,4 12.5,4 Z" id="Combined-Shape" fill="#6F7170"></path>
            <rect id="Rectangle" x="0" y="0" width="20" height="20"></rect>
        </g>
    </g>
</svg>